# xmcd
#
# Track frame offsets:
# 150
# 11018
# 25011
# 39977
# 55542
# 74090
# 89157
# 98341
# 114514
# 127285
# 139799
# 155016
# 174146
# 190394
# 215635
#
# Disc length: 3015 seconds
#
#
# Revision: 0
# Processed by: cddbd v1.5.1PL2 Copyright (c) Steve Scherf et al.
# Submitted via: FreeRIP 2.92 
#
DISCID=d10bc50f
DTITLE=tuulemaa - küll süda teab
DYEAR=2003
DGENRE=Folklore
TTITLE0=kahte lehte
TTITLE1=kuninganna
TTITLE2=küll süda teab
TTITLE3=sina jää
TTITLE4=pilved peas
TTITLE5=ingel
TTITLE6=igatsus on kummaline asi
TTITLE7=õnneseen
TTITLE8=elu muinasjutt
TTITLE9=lill on inimene
TTITLE10=üksinda
TTITLE11=nii nagu sina
TTITLE12=sinuga koos
TTITLE13=emale
TTITLE14=väike paju
EXTD=
EXTT0=
EXTT1=
EXTT2=
EXTT3=
EXTT4=
EXTT5=
EXTT6=
EXTT7=
EXTT8=
EXTT9=
EXTT10=
EXTT11=
EXTT12=
EXTT13=
EXTT14=
PLAYORDER=
